<mxfile host="app.diagrams.net" modified="2023-06-02T02:29:46.300Z" agent="Mozilla/5.0 (Windows NT 10.0; Win64; x64) AppleWebKit/537.36 (KHTML, like Gecko) Chrome/113.0.0.0 Safari/537.36" version="21.3.7" etag="7Peb1FAdetWAmB5mi0N1" type="github">
  <diagram name="第 1 页" id="H5hNldJiSzvjC8TWpzpx">
    <mxGraphModel>
      <root>
        <mxCell id="0" />
        <mxCell id="1" parent="0" />
      </root>
    </mxGraphModel>
  </diagram>
</mxfile>
